<?xml version="1.0" encoding="utf-8"?>
<!-- Generator: Adobe Illustrator 15.0.2, SVG Export Plug-In . SVG Version: 6.00 Build 0)  -->
<!DOCTYPE svg PUBLIC "-//W3C//DTD SVG 1.1//EN" "http://www.w3.org/Graphics/SVG/1.1/DTD/svg11.dtd">
<svg version="1.1" id="Layer_1" xmlns="http://www.w3.org/2000/svg" xmlns:xlink="http://www.w3.org/1999/xlink" x="0px" y="0px"
	 width="512px" height="477.853px" viewBox="0 0 512 477.853" enable-background="new 0 0 512 477.853" xml:space="preserve">
<path d="M68.269,170.663c37.7,0,68.269,30.563,68.269,68.269c0,21.579-10.011,40.821-25.643,53.326
	c21.548,65.568,81.742,113.632,153.643,117.348c0,26.458,10.952,50.373,28.573,67.426l-20.042,0.821
	c-110.053,0-202.727-74.395-230.463-175.637C17.621,292.068,0,267.563,0,238.932C0,201.227,30.568,170.663,68.269,170.663z
	 M349.868,0c37.705,0,68.279,30.563,68.279,68.263c0,37.706-30.574,68.269-68.279,68.269c-37.631,0-68.147-30.452-68.273-68.058
	c-2.821-0.137-5.663-0.211-8.526-0.211c-66.3,0-123.769,37.806-152.026,93.032c-15.037-10.242-33.205-16.231-52.773-16.231
	l-15.531,1.278C88.91,60.368,173.937,0,273.068,0c17.273,0,34.116,1.832,50.348,5.311C331.553,1.89,340.489,0,349.868,0z
	 M358.395,341.332c15.074,0,28.989,4.884,40.284,13.137c27.974-30.4,45.068-70.969,45.068-115.537
	c0-37.284-11.958-71.779-32.258-99.858c18.974-16.516,31.227-40.531,32.195-67.421C485.937,114.753,512,173.8,512,238.932
	c0,74.095-33.727,140.315-86.652,184.142c-6.253,31.242-33.858,54.779-66.953,54.779c-37.694,0-68.252-30.547-68.252-68.247
	C290.143,371.9,320.7,341.332,358.395,341.332z"/>
</svg>
